# xmcd
#
# Track frame offsets:
#	182
#	10935
#	23967
#	37100
#	50520
#	63057
#	74742
#	87000
#	95792
#
# Disc length: 1433 seconds
#
# Revision: 4
# Processed by: cddbd v1.5.2PL0 Copyright (c) Steve Scherf et al.
# Submitted via: audiograbber 1.83.01
#
DISCID=77059709
DTITLE=Various Artist - Soul Hits Of The 60's
DYEAR=1900
DGENRE=Oldies
TTITLE0=Temptations - Beauty Is Only Skin Deep
TTITLE1=James Brown - Cold Sweat
TTITLE2=Platters - I'll Never Smile Again
TTITLE3=Smokey Robinson and The MIracles - You've Really Got A Hold On Me
TTITLE4=Dinah Washington and Brook Benton - Baby (You Got What It Takes)
TTITLE5=Supremes - Baby Love
TTITLE6=Jerry Butler - Hey Western Union Man
TTITLE7=Clyde McPhatter - Lover Please
TTITLE8=Barrett Strong - Money
EXTD=
EXTT0=
EXTT1=
EXTT2=
EXTT3=
EXTT4=
EXTT5=
EXTT6=
EXTT7=
EXTT8=
PLAYORDER=
